# xmcd CD database file
#
# Track frame offsets:
#	150
#	17885
#	38767
#	55447
#	73715
#	93482
#	111735
#	132365
#	150095
#	166177
#	184340
#	199985
#	214525
#
# Disc length: 3029 seconds
#
# Revision: 8
# Processed by: cddbd v1.4PL0 Copyright (c) Steve Scherf et al.
# Submitted via: CDex 1.50beta8
#
DISCID=b90bd30d
DTITLE=Simply Red - Blue
DYEAR=1998
DGENRE=Pop
TTITLE0=Mellow My Mind
TTITLE1=Blue
TTITLE2=Say You Love Me
TTITLE3=To Be Free
TTITLE4=The Air That I Breathe
TTITLE5=Someday In My Life
TTITLE6=The Air That I Breathe Reprise
TTITLE7=Night Nurse
TTITLE8=Broken Man
TTITLE9=Come Get Me Angel
TTITLE10=Ghetto Girl
TTITLE11=Love Has Said Goodbye Again
TTITLE12=High Fives
EXTD=YEAR: 1998
EXTT0=
EXTT1=
EXTT2=se say you love me\nCome on say you love me
EXTT3=
EXTT4=to love you\nAll I need is the air that Ibreathe you' re all I want
EXTT5=
EXTT6=
EXTT7=\nMy night nurse\nMy night nurse
EXTT8=
EXTT9=
EXTT10=
EXTT11=
EXTT12=ime goes by\n\nGoes by
PLAYORDER=
